<?xml version="1.0" standalone="no"?>
<!DOCTYPE svg PUBLIC "-//W3C//DTD SVG 20010904//EN"
 "http://www.w3.org/TR/2001/REC-SVG-20010904/DTD/svg10.dtd">
<svg version="1.0" xmlns="http://www.w3.org/2000/svg"
 width="16.000000pt" height="16.000000pt" viewBox="0 0 16.000000 16.000000"
 preserveAspectRatio="xMidYMid meet">
<metadata>
Created by potrace 1.11, written by Peter Selinger 2001-2013
</metadata>
<g transform="translate(0.000000,16.000000) scale(0.006250,-0.006250)"
fill="#000000" stroke="none">
<path d="M535 1838 c-2 -7 -33 -184 -70 -393 -36 -209 -69 -390 -72 -402 -5
-23 -4 -23 110 -23 l115 0 6 28 c3 15 35 194 71 397 36 204 67 378 69 388 4
15 -6 17 -110 17 -83 0 -116 -3 -119 -12z"/>
<path d="M866 1823 c-35 -168 -89 -502 -90 -553 -1 -83 23 -148 73 -193 59
-53 115 -70 213 -65 70 3 93 9 145 37 77 41 146 113 181 189 22 47 27 71 27
137 0 86 -14 125 -62 177 l-25 26 -97 -45 c-53 -25 -102 -47 -108 -50 -10 -4
-13 14 -13 71 0 42 -4 76 -9 76 -4 0 -16 -48 -26 -107 -9 -59 -19 -113 -22
-120 -4 -10 6 -11 41 -7 58 8 86 -12 86 -64 0 -25 -8 -42 -34 -68 -61 -61
-136 -36 -136 44 0 31 67 436 85 520 5 22 4 22 -109 22 l-114 0 -6 -27z"/>
<path d="M1956 1823 c-3 -16 -24 -134 -47 -263 -52 -298 -59 -315 -131 -326
-42 -7 -88 25 -88 62 0 65 53 110 118 102 l39 -6 20 117 c11 64 18 119 16 124
-7 12 -75 8 -138 -8 -144 -38 -257 -159 -285 -305 -14 -73 -4 -129 34 -192 43
-72 107 -111 192 -116 l64 -4 0 61 0 62 94 45 c51 24 98 44 105 44 7 0 11 -22
11 -60 0 -33 4 -60 9 -60 13 0 64 67 89 115 28 56 36 89 82 350 22 127 43 242
46 258 l6 27 -115 0 -115 0 -6 -27z"/>
<path d="M380 775 l0 -65 45 0 c52 0 61 17 13 22 -32 3 -33 4 -36 56 -4 75
-22 65 -22 -13z"/>
<path d="M485 831 c-6 -11 9 -23 19 -14 9 9 7 23 -3 23 -6 0 -12 -4 -16 -9z"/>
<path d="M670 775 c0 -37 4 -65 10 -65 6 0 10 28 10 65 0 37 -4 65 -10 65 -6
0 -10 -28 -10 -65z"/>
<path d="M860 775 l0 -65 39 0 c49 0 91 36 62 54 -4 3 -6 17 -3 32 6 32 -10
44 -60 44 l-38 0 0 -65z m78 28 c2 -9 -7 -13 -27 -13 -21 0 -31 5 -31 16 0 19
51 16 58 -3z m0 -50 c2 -9 -7 -13 -27 -13 -21 0 -31 5 -31 16 0 19 51 16 58
-3z"/>
<path d="M1310 774 l0 -67 42 6 c23 3 48 14 55 23 33 46 -2 104 -62 104 l-35
0 0 -66z m74 24 c20 -28 4 -58 -29 -58 -22 0 -25 4 -25 40 0 33 3 40 19 40 11
0 27 -10 35 -22z"/>
<path d="M1432 829 c2 -6 8 -10 13 -10 5 0 11 4 13 10 2 6 -4 11 -13 11 -9 0
-15 -5 -13 -11z"/>
<path d="M1487 818 c-9 -15 -12 -39 -10 -66 6 -48 26 -53 31 -6 2 16 9 33 15
37 9 6 9 10 0 14 -18 7 -16 23 2 23 8 0 15 5 15 10 0 19 -40 10 -53 -12z"/>
<path d="M1563 823 c-4 -10 -11 -22 -17 -26 -8 -6 -7 -10 2 -14 6 -2 12 -20
12 -39 0 -19 5 -34 10 -34 6 0 10 16 10 35 0 24 5 35 15 35 8 0 15 5 15 10 0
6 -7 10 -15 10 -8 0 -15 5 -15 10 0 6 7 10 15 10 8 0 15 5 15 10 0 17 -40 11
-47 -7z"/>
<path d="M531 808 c-10 -16 -10 -23 -2 -26 6 -2 11 -17 11 -33 0 -29 23 -50
38 -34 4 4 1 10 -5 12 -7 3 -13 15 -13 28 0 13 6 26 13 29 10 5 10 7 0 12 -7
3 -13 12 -13 20 0 21 -13 17 -29 -8z"/>
<path d="M610 816 c0 -8 -6 -17 -12 -19 -10 -4 -10 -8 -1 -14 6 -4 13 -22 15
-38 2 -22 9 -31 26 -33 25 -4 30 13 7 22 -8 3 -15 15 -15 26 0 11 7 20 15 20
8 0 15 5 15 10 0 6 -7 10 -15 10 -8 0 -15 7 -15 15 0 8 -4 15 -10 15 -5 0 -10
-6 -10 -14z"/>
<path d="M1201 808 c-10 -16 -10 -23 -2 -26 6 -2 11 -17 11 -33 0 -29 23 -50
38 -34 4 4 1 10 -5 12 -7 3 -13 15 -13 28 0 13 6 26 13 29 10 5 10 7 0 12 -7
3 -13 12 -13 20 0 21 -13 17 -29 -8z"/>
<path d="M2030 816 c0 -8 -6 -17 -12 -19 -10 -4 -10 -8 -1 -14 6 -4 13 -22 15
-38 2 -22 9 -31 26 -33 12 -2 22 1 22 7 0 6 -7 11 -15 11 -18 0 -21 46 -2 54
10 5 10 7 0 12 -7 3 -13 12 -13 20 0 8 -4 14 -10 14 -5 0 -10 -6 -10 -14z"/>
<path d="M729 791 c-42 -34 -3 -93 51 -76 28 9 16 23 -15 17 -15 -2 -25 0 -25
7 0 6 14 11 31 11 25 0 30 3 27 21 -4 32 -42 42 -69 20z m44 -18 c-7 -2 -19
-2 -25 0 -7 3 -2 5 12 5 14 0 19 -2 13 -5z"/>
<path d="M1008 802 c-22 -4 -35 -49 -21 -71 12 -18 64 -22 70 -5 2 7 -5 10
-20 7 -14 -3 -28 0 -31 6 -5 7 5 11 29 11 32 0 36 3 33 21 -3 23 -32 38 -60
31z m35 -29 c-7 -2 -19 -2 -25 0 -7 3 -2 5 12 5 14 0 19 -2 13 -5z"/>
<path d="M1641 794 c-24 -17 -28 -56 -7 -74 17 -14 58 -10 63 6 2 7 -5 10 -20
7 -14 -3 -28 0 -31 6 -5 7 5 11 29 11 32 0 36 3 33 21 -4 30 -40 42 -67 23z
m42 -21 c-7 -2 -19 -2 -25 0 -7 3 -2 5 12 5 14 0 19 -2 13 -5z"/>
<path d="M1834 800 c-48 -19 -27 -94 24 -88 15 2 25 8 23 13 -2 6 -12 9 -22 7
-9 -2 -20 2 -24 8 -4 6 7 10 30 10 28 0 36 4 33 16 -5 25 -40 43 -64 34z m29
-27 c-7 -2 -19 -2 -25 0 -7 3 -2 5 12 5 14 0 19 -2 13 -5z"/>
<path d="M490 755 c0 -25 5 -45 10 -45 6 0 10 20 10 45 0 25 -4 45 -10 45 -5
0 -10 -20 -10 -45z"/>
<path d="M1090 780 c-23 -42 2 -67 68 -68 20 -1 22 4 22 44 l0 44 -40 0 c-29
0 -42 -5 -50 -20z m65 -25 c0 -30 -39 -27 -43 3 -3 20 0 23 20 20 15 -2 23
-10 23 -23z"/>
<path d="M1432 758 c2 -24 8 -43 13 -43 6 0 11 19 13 43 3 33 0 42 -13 42 -13
0 -16 -9 -13 -42z"/>
<path d="M1730 755 c0 -25 5 -45 10 -45 6 0 10 14 10 30 0 23 6 33 25 40 35
13 31 20 -10 20 -35 0 -35 0 -35 -45z"/>
<path d="M1912 759 c4 -54 28 -66 28 -15 0 29 4 36 20 36 16 0 20 -7 20 -35 0
-19 5 -35 11 -35 6 0 9 17 7 43 -3 42 -3 42 -46 45 l-43 3 3 -42z"/>
</g>
</svg>
